<svg width="95" height="95" viewBox="0 0 95 95" fill="none" xmlns="http://www.w3.org/2000/svg">
<path d="M57.3105 0.75C68.3155 0.75 73.5365 1.75824 78.9591 4.65824C83.8553 7.27675 87.7233 11.1447 90.3418 16.0409C93.2418 21.4635 94.25 26.6845 94.25 37.6895V57.3105C94.25 68.3155 93.2418 73.5365 90.3418 78.9591C87.7233 83.8553 83.8553 87.7233 78.9591 90.3418C73.5365 93.2418 68.3155 94.25 57.3105 94.25H37.6895C26.6845 94.25 21.4635 93.2418 16.0409 90.3418C11.1447 87.7233 7.27675 83.8553 4.65824 78.9591C1.75824 73.5365 0.75 68.3155 0.75 57.3105V37.6895C0.75 26.6845 1.75824 21.4635 4.65824 16.0409C7.27675 11.1447 11.1447 7.27675 16.0409 4.65824C21.4635 1.75824 26.6845 0.75 37.6895 0.75H57.3105ZM64.4113 53.6279L46.5525 75.6751C45.0605 77.517 42.3502 77.7824 40.5292 76.2649L30.7608 68.1246L17.5937 81.2941C18.3625 81.8643 19.1814 82.3821 20.0495 82.8464C24.0723 84.9978 27.9677 85.75 37.6895 85.75H57.3105C67.0323 85.75 70.9277 84.9978 74.9505 82.8464C78.3654 81.02 81.02 78.3654 82.8464 74.9505C83.4707 73.783 83.9772 72.6263 84.3817 71.3348L64.4113 53.6279ZM57.3105 9.25H37.6895C27.9677 9.25 24.0723 10.0022 20.0495 12.1536C16.6346 13.98 13.98 16.6346 12.1536 20.0495C10.0022 24.0723 9.25 27.9677 9.25 37.6895V57.3105C9.25 66.9021 9.98223 70.8223 12.068 74.7889L27.4948 59.3698C29.0491 57.8155 31.5321 57.7029 33.2208 59.1101L42.6601 66.9762L60.6032 44.8249C62.1274 42.9433 64.9132 42.7135 66.7251 44.3198L85.7019 61.1432C85.7346 59.9733 85.75 58.7015 85.75 57.3105V37.6895C85.75 27.9677 84.9978 24.0723 82.8464 20.0495C81.02 16.6346 78.3654 13.98 74.9505 12.1536C70.9277 10.0022 67.0323 9.25 57.3105 9.25ZM32.625 26.25C36.1458 26.25 39 29.1042 39 32.625C39 36.1458 36.1458 39 32.625 39C29.1042 39 26.25 36.1458 26.25 32.625C26.25 29.1042 29.1042 26.25 32.625 26.25Z" fill="#BEBEBE"/>
</svg>
